<svg id="flat" height="512" viewBox="0 0 512 512" width="512" xmlns="http://www.w3.org/2000/svg"><path d="m136 64h-32v-32h-32v32h-32v32h32v32h32v-32h32z" fill="#e5e5e5"/><path d="m128 56h-32v-32h-32v32h-32v32h32v32h32v-32h32z" fill="#1dbf5e"/><path d="m112 488v-336.3a39.7 39.7 0 0 1 39.7-39.7h256.3v376z" fill="#afeaef"/><path d="m167.7 112h-16a39.7 39.7 0 0 0 -39.7 39.7v336.3h16v-336.3a39.7 39.7 0 0 1 39.7-39.7z" fill="#77d5d8"/><path d="m150.893 328h210.214a14.893 14.893 0 0 1 14.893 14.893v145.107a0 0 0 0 1 0 0h-240a0 0 0 0 1 0 0v-145.107a14.893 14.893 0 0 1 14.893-14.893z" fill="#4abdcc"/><path d="m233.147 480a73.147 73.147 0 0 1 -73.147-73.147v-71.96a14.822 14.822 0 0 1 1.7-6.893h-10.807a14.893 14.893 0 0 0 -14.893 14.893v145.107h240v-8z" fill="#3b9daf"/><path d="m368 215.955v-31.91a24.045 24.045 0 0 0 -24.045-24.045h-176.132a23.823 23.823 0 0 0 -23.823 23.823v32.354a23.823 23.823 0 0 0 23.823 23.823h176.132a24.045 24.045 0 0 0 24.045-24.045z" fill="#77d5d8"/><path d="m359.955 224h-176.132a23.823 23.823 0 0 1 -23.823-23.823v-32.354a23.813 23.813 0 0 1 1-6.823 23.831 23.831 0 0 0 -17 22.826v32.354a23.823 23.823 0 0 0 23.823 23.82h176.132a24.053 24.053 0 0 0 23-17.04 24.043 24.043 0 0 1 -7 1.04z" fill="#4abdcc"/><path d="m184 344v-46.354a17.646 17.646 0 0 1 17.646-17.646h108.708a17.646 17.646 0 0 1 17.646 17.646v46.354z" fill="#066991"/><path d="m376.849 416h-56.849v-16h56.849a23.178 23.178 0 0 0 23.151-23.152v-328.848h16v328.848a39.2 39.2 0 0 1 -39.151 39.152z" fill="#77d5d8"/><path d="m310.354 280h-108.708a17.62 17.62 0 0 0 -14.766 8h107.474a17.646 17.646 0 0 1 17.646 17.646v38.354h16v-46.354a17.646 17.646 0 0 0 -17.646-17.646z" fill="#3b9daf"/><rect fill="#77d5d8" height="96" rx="12.983" width="64" x="376" y="88"/><path d="m427.017 88h-38.034a12.982 12.982 0 0 0 -11.983 8h34.022a12.983 12.983 0 0 1 12.978 12.983v70.034a12.933 12.933 0 0 1 -1 4.983h4.012a12.983 12.983 0 0 0 12.988-12.983v-70.034a12.983 12.983 0 0 0 -12.983-12.983z" fill="#afeaef"/><rect fill="#faa6a6" height="128" rx="32.106" width="96" x="208" y="136"/><path d="m208 168.106v63.788a32.107 32.107 0 0 0 32.106 32.106h8a32.107 32.107 0 0 1 -32.106-32.106v-63.788z" fill="#e88080"/><path d="m271.894 136h-16a32.107 32.107 0 0 1 32.106 32.106v63.788a32.107 32.107 0 0 1 -32.106 32.106h16a32.107 32.107 0 0 0 32.106-32.106v-63.788a32.107 32.107 0 0 0 -32.106-32.106z" fill="#f4c7c6"/><path d="m376 342.893a14.893 14.893 0 0 0 -14.893-14.893h-210.214a14.893 14.893 0 0 0 -14.893 14.893v33.107h240z" fill="#e5e5e5"/><path d="m174.893 328h-24a14.893 14.893 0 0 0 -14.893 14.893v33.107h24v-33.107a14.893 14.893 0 0 1 14.893-14.893z" fill="#b7b7b7"/><path d="m464 24v16h-80v-16h-16v24a8 8 0 0 0 8 8h88v256h16v-288z" fill="#b7b7b7"/><path d="m320 376v64a16 16 0 0 1 -16 16 16 16 0 0 1 -16-16v-64z" fill="#3b9daf"/><path d="m328 328v112a16 16 0 0 1 -16 16 16 16 0 0 1 -16-16v-112z" fill="#faa6a6"/><path d="m312 328v112a15.98 15.98 0 0 1 -8 13.842 15.98 15.98 0 0 0 24-13.842v-112z" fill="#f4c7c6"/><path d="m296 392h32v32h-32z" fill="#ce3521"/><path d="m408.792 136.792a12.433 12.433 0 0 0 -17.584 0l-15.208 15.208v19.017a12.983 12.983 0 0 0 12.983 12.983h38.034a12.983 12.983 0 0 0 12.983-12.983v-43.017l-15.519 10.346a12.435 12.435 0 0 1 -15.689-1.554z" fill="#f7b023"/><path d="m424.481 138.346c-.157.1-.32.194-.481.291v32.38a12.983 12.983 0 0 1 -12.983 12.983h16a12.983 12.983 0 0 0 12.983-12.983v-43.017z" fill="#f7ce23"/><path d="m224 280 32 32 32-32z" fill="#faa6a6"/><path d="m271.894 144h-31.788a32.107 32.107 0 0 0 -32.106 32.106v39.894l10.687-7.125a29.9 29.9 0 0 0 13.313-24.875h48a29.9 29.9 0 0 0 13.313 24.875l10.687 7.125v-39.894a32.107 32.107 0 0 0 -32.106-32.106z" fill="#e88080"/><path d="m271.894 136h-31.788a32.107 32.107 0 0 0 -32.106 32.106v39.894l10.687-7.125a29.9 29.9 0 0 0 13.313-24.875h48a29.9 29.9 0 0 0 13.313 24.875l10.687 7.125v-39.894a32.107 32.107 0 0 0 -32.106-32.106z" fill="#f99321"/><path d="m271.894 136h-31.788a32.059 32.059 0 0 0 -26.343 13.763 31.94 31.94 0 0 1 18.343-5.763h31.788a32.107 32.107 0 0 1 32.106 32.106v26.561l8 5.333v-39.894a32.107 32.107 0 0 0 -32.106-32.106z" fill="#f7b023"/><path d="m240 264h32v24h-32z" fill="#faa6a6"/><path d="m288 328h8v48h-8z" fill="#b7b7b7"/></svg>