<svg id="Capa_1" enable-background="new 0 0 512 512" height="512" viewBox="0 0 512 512" width="512" xmlns="http://www.w3.org/2000/svg"><g><g><path d="m0 256c0 31.732 5.774 62.116 16.327 90.159 2.029 5.392 15.488 9.782 17.863 14.994 2.178 4.778-6.754 10.393-4.296 15.008 43.042 80.82 128.149 135.839 226.106 135.839l33.642-256-33.642-256c-97.46 0-182.199 54.461-225.446 134.61-3.012 5.583 6.015 20.755 3.415 26.578-2.079 4.656-15.861-.08-17.665 4.717-10.539 28.025-16.304 58.387-16.304 90.095z" fill="#fff083"/><path d="m256 0v512c97.957 0 183.064-55.019 226.105-135.84 2.613-4.907-3.414-8.994-1.117-14.085 2.219-4.92 12.773-10.838 14.685-15.917 10.553-28.042 16.327-58.426 16.327-90.158 0-31.84-5.813-62.322-16.435-90.443-1.855-4.911-10.457 2.459-12.599-2.302-2.564-5.697 1.27-23.492-1.69-28.959-43.298-79.977-127.944-134.296-225.276-134.296z" fill="#ffda2d"/></g><g><g><g><g><g><path d="m131.949 158.72h79.683v30.001h-79.683z" fill="#ffda2d" transform="matrix(.971 -.241 .241 .971 -36.753 46.44)"/></g></g></g><g><path d="m325.209 133.879h30.001v79.683h-30.001z" fill="#ffb64c" transform="matrix(.241 -.971 .971 .241 89.729 462.132)"/></g></g></g><path d="m118.031 346.152h-101.687c3.89 10.335 8.427 20.351 13.566 30h88.121z" fill="#e7ffff"/><path d="m393.969 376.152h88.121c5.139-9.649 9.676-19.665 13.566-30h-101.687z" fill="#daf2fe"/><g><path d="m394.724 302.934 14.245-19.427 86.579-117.943c-4.074-10.786-8.843-21.231-14.275-31.265l-110.74 150.893z" fill="#daf2fe"/></g><g><path d="m117.364 302.934 24.191-17.742-110.994-150.578c-5.421 10.046-10.181 20.5-14.241 31.297l86.711 117.432z" fill="#e7ffff"/></g><path d="m160.411 258.187c-16.173 8.371-31.449 16.278-47.239 21.685l-10.141 3.473v75.687c0 84.481 68.486 152.968 152.969 152.968l33.642-130.904-33.642-153.817c-34.94-.459-65.78 15.478-95.589 30.908z" fill="#4dffc3"/><path d="m408.969 359.031v-75.524l-9.937-3.563c-19.63-7.04-37.103-15.626-54-23.93-29.56-14.526-57.48-28.246-88.798-28.734-.078-.001-.156.001-.234 0v284.72h.001c84.482 0 152.968-68.487 152.968-152.969z" fill="#2ee6a8"/><g><path d="m103.031 346.152v17.125c0 53.144 67.972 96.522 151.523 96.696h1.446l33.642-67.186-33.642-83.493c-49.541.114-152.969 36.858-152.969 36.858z" fill="#2ee6a8"/><path d="m408.969 363.278v-17.125s-111.04-36.861-152.735-36.861c-.077 0-.157.002-.234.003v150.681h1.448c83.549-.176 151.521-43.554 151.521-96.698z" fill="#12c7a1"/></g></g></svg>