<svg id="Layer_1" enable-background="new 0 0 511.999 511.999" height="512" viewBox="0 0 511.999 511.999" width="512" xmlns="http://www.w3.org/2000/svg"><g><g clip-rule="evenodd" fill-rule="evenodd"><path d="m401.907 45.963 21.593 80.586 34.636-9.281c10.62-2.846 16.989-13.871 14.142-24.494l-11.24-41.949c-2.846-10.623-13.869-16.989-24.495-14.142z" fill="#ff764e"/><path d="m124.034 184.437c10.623-2.847 16.989-13.869 14.142-24.495s-13.869-16.989-24.495-14.143l-38.637 10.353c-10.624 2.848-16.988 13.872-14.141 24.496 2.846 10.623 13.872 16.989 24.494 14.142z" fill="#e3eaef"/><path d="m128.104 256.002c-4.015-14.389-18.244-29.576-23.103-29.576s-19.088 15.187-23.103 29.576c-.679 2.433-1.066 4.844-1.066 7.155 0 13.226 10.922 24.548 24.169 24.497 13.247.051 24.169-11.271 24.169-24.497 0-2.311-.387-4.722-1.066-7.155z" fill="#66e0f7"/><path d="m129.17 263.157c0 13.226-10.922 24.548-24.169 24.497-13.247.051-24.169-11.271-24.169-24.497 0-2.311.387-4.722 1.068-7.155h-49.4c-12.375 0-22.5 10.125-22.5 22.5v134.999c0 12.375 10.125 22.5 22.5 22.5h446.999c12.375 0 22.5-10.125 22.5-22.5v-134.999c0-12.375-10.125-22.5-22.5-22.5h-351.395c.679 2.433 1.066 4.844 1.066 7.155zm65.832 82.844c0-12.375 10.124-22.499 22.5-22.499h28.247 40.001 138.748c12.374 0 22.5 10.127 22.499 22.5 0 12.372-10.127 22.499-22.499 22.499h-138.748-40.001-28.247c-12.373 0-22.5-10.124-22.5-22.5zm-107.501-22.499h35.001c12.375 0 22.5 10.124 22.5 22.5 0 12.375-10.125 22.5-22.5 22.5h-35.001c-12.375 0-22.5-10.125-22.5-22.5 0-12.376 10.125-22.5 22.5-22.5z" fill="#e3eaef"/><path d="m122.501 323.502h-35c-12.375 0-22.5 10.124-22.5 22.5 0 12.375 10.125 22.5 22.5 22.5h35.001c12.375 0 22.5-10.125 22.5-22.5-.001-12.376-10.126-22.5-22.501-22.5z" fill="#fff"/><path d="m217.502 323.502c-12.376 0-22.5 10.124-22.5 22.499s10.127 22.5 22.5 22.5h28.247v-44.999z" fill="#fff"/><path d="m245.749 323.502h40.001v44.999h-40.001z" fill="#ff5d7d"/><path d="m285.75 323.502v44.999h138.748c12.372 0 22.499-10.127 22.499-22.499s-10.125-22.5-22.499-22.5z" fill="#fff"/><path d="m479.499 436.001h-446.999c-12.375 0-22.5-10.125-22.5-22.5v40.001c0 12.375 10.125 22.5 22.5 22.5h447c12.375 0 22.5-10.125 22.5-22.5v-40.001c-.001 12.376-10.126 22.5-22.501 22.5z" fill="#a7bdcd"/></g><g><path d="m479.499 246.002h-344.44c-2.456-5.452-5.531-10.083-7.813-13.159-16.385-21.716-28.138-21.667-44.49 0-2.282 3.076-5.357 7.707-7.813 13.159h-42.444c-17.92 0-32.499 14.58-32.499 32.5v175c0 17.92 14.579 32.5 32.5 32.5h446.999c17.921 0 32.5-14.58 32.5-32.5v-175c0-17.921-14.579-32.5-32.5-32.5zm-374.498-8.234c7.627 7.385 20.966 25.06 9.779 35.75-2.692 2.681-6.152 4.152-9.817 4.137-3.591.015-7.049-1.456-9.741-4.137-11.189-10.686 2.157-28.373 9.779-35.75zm374.498 228.234h-446.999c-6.893 0-12.5-5.607-12.5-12.5v-10.002c3.85 1.61 8.073 2.5 12.5 2.5h178.496c13.268-.529 13.258-19.476 0-20h-178.496c-6.893 0-12.5-5.607-12.5-12.5v-135c0-6.893 5.607-12.5 12.499-12.5h38.456c.692 8.084 4.306 15.86 10.152 21.685 6.456 6.431 14.904 9.968 23.729 9.968h.257c8.898 0 17.348-3.537 23.804-9.968 5.846-5.824 9.46-13.601 10.152-21.685h340.452c6.893 0 12.5 5.607 12.5 12.5v135c0 6.892-5.607 12.5-12.5 12.5h-178.505c-13.268.529-13.258 19.476 0 20h178.503c4.427 0 8.65-.89 12.5-2.5v10.002c0 6.893-5.607 12.5-12.5 12.5z"/><path d="m122.501 313.502h-35c-43.126 1.79-43.093 63.226 0 65h35c43.127-1.791 43.093-63.226 0-65zm0 44.999h-35c-16.587-.689-16.574-24.317 0-25h35c16.587.689 16.574 24.318 0 25z"/><path d="m456.998 346.001c0-17.92-14.579-32.5-32.5-32.5h-206.997c-43.124 1.791-43.092 63.225 0 64.999h206.997c17.921.001 32.5-14.578 32.5-32.499zm-20 .001c0 6.892-5.607 12.499-12.5 12.499h-128.748v-24.999h128.748c6.893 0 12.5 5.607 12.5 12.5zm-161.248 12.499h-20.001v-24.999h20.001zm-70.748-12.5c0-6.892 5.607-12.5 12.499-12.5h18.248v24.999h-18.248c-6.892.001-12.499-5.607-12.499-12.499z"/><path d="m65.234 201.431c6.961 4.023 15.066 5.082 22.751 3.019l38.639-10.353c12.636-3.386 21.23-14.404 22.154-26.769l256.855-68.824 8.209 30.634c1.41 5.378 7.056 8.506 12.247 7.071l34.636-9.281c7.717-2.067 14.178-7.036 18.193-13.989 4.016-6.955 5.089-15.035 3.021-22.753l-11.24-41.949c-4.282-15.979-20.766-25.497-36.742-21.213l-34.637 9.281c-5.217 1.288-8.564 7.086-7.071 12.248l8.209 30.634-256.939 68.847c-7.017-10.106-19.877-15.256-32.424-11.891l-38.638 10.353c-7.718 2.068-14.18 7.037-18.194 13.99-4.015 6.954-5.086 15.035-3.018 22.751 2.067 7.717 7.035 14.178 13.989 18.194zm373.898-155.09c5.331-1.429 10.82 1.746 12.248 7.072l11.24 41.949c.686 2.557.322 5.247-1.021 7.574-1.345 2.328-3.493 3.987-6.05 4.672l-24.977 6.692-16.417-61.267zm-367.549 124.143c1.343-2.327 3.492-3.986 6.05-4.672l38.637-10.353c5.187-1.433 10.838 1.703 12.248 7.072 1.427 5.326-1.745 10.82-7.07 12.247l-38.638 10.353c-2.559.685-5.248.322-7.576-1.021-2.327-1.344-3.985-3.492-4.671-6.051-.686-2.558-.324-5.248 1.02-7.575z"/><path d="m255.999 426.001h-.007c-5.522 0-9.996 4.477-9.996 10 .528 13.263 19.478 13.262 20.003 0 0-5.523-4.478-10-10-10z"/></g></g></svg>